<svg width="46" height="48" viewBox="0 0 46 48" fill="none" xmlns="http://www.w3.org/2000/svg">
<g clip-path="url(#clip0_1330_90)">
<path fill-rule="evenodd" clip-rule="evenodd" d="M18.6698 28.1029C16.7329 21.011 18.1691 13.7103 21.3121 8.44033C25.0037 2.25079 30.9959 -1.03424 36.7688 0.290978C42.8936 1.69683 45.4903 6.37442 45.9279 11.5791C46.2968 15.9683 44.9315 20.6652 43.4165 23.1365C40.4378 27.9957 36.0574 31.2339 31.5431 33.3391C34.5558 36.2204 39.7001 39.1749 45.6972 39.0767L45.8365 47.7713C36.5828 47.9227 28.732 43.0309 24.616 38.6327C23.8841 37.8505 23.2178 37.047 22.6142 36.2268C18.0134 37.1686 14.5828 37.1472 14.5828 37.1472L14.6162 28.4518C14.6162 28.4518 16.2446 28.4533 18.6698 28.1029ZM26.9994 25.8596C30.4103 24.4334 33.8645 22.2055 36.1008 18.5573C36.9162 17.2272 37.552 14.6779 37.3533 12.3152C37.223 10.7652 36.6868 9.18916 34.8628 8.77044C33.1983 8.38853 31.6413 9.3571 30.3191 10.7455C28.4246 12.7351 27.054 15.7028 26.5758 18.9789C26.2534 21.1869 26.3499 23.5413 26.9994 25.8596Z" fill="#1CBFB3"/>
<path d="M12.3342 41.1475V7.15506C12.3342 1.20652 15.6982 1.20655 15.6982 1.20655V0.356934H-0.000244141V1.20655C-0.000244141 1.20655 3.36374 1.20652 3.36374 7.15506V41.1475C3.36374 47.0961 -0.000244141 47.0962 -0.000244141 47.0962V47.9458H15.6982V47.0962C15.6982 47.0962 12.3342 47.0961 12.3342 41.1475Z" fill="#1CBFB3"/>
</g>
<defs>
<clipPath id="clip0_1330_90">
<rect width="46" height="48" fill="white"/>
</clipPath>
</defs>
</svg>
